<svg width="16" height="22" viewBox="0 0 16 22" fill="none" xmlns="http://www.w3.org/2000/svg">
<path fill-rule="evenodd" clip-rule="evenodd" d="M16 13.4999C16 14.7635 15.7904 15.917 15.3712 16.96C14.9519 18.0032 14.3815 18.8983 13.66 19.6455C12.9385 20.3928 12.0926 20.972 11.1225 21.3832C10.1523 21.7944 9.11156 22 8.00004 22C6.89825 22 5.8623 21.7894 4.89219 21.3681C3.922 20.9469 3.07377 20.3602 2.34733 19.6079C1.62098 18.8557 1.04817 17.9605 0.62892 16.9225C0.209668 15.8844 0 14.7435 0 13.4999L0 0L0.237435 0C2.31948 0 4.0073 1.73623 4.0073 3.87798L4.0073 6.69968C4.22178 6.41881 4.48266 6.16811 4.78977 5.94749C5.09687 5.72678 5.42841 5.54622 5.78432 5.40583C6.14014 5.26544 6.50826 5.15765 6.88852 5.08237C7.26878 5.00718 7.63923 4.96954 8.00004 4.96954C9.11156 4.96954 10.1523 5.18269 11.1225 5.60899C12.0926 6.0352 12.9385 6.62944 13.66 7.39172C14.3815 8.154 14.9519 9.05415 15.3712 10.0922C15.7904 11.1304 16 12.2662 16 13.4999ZM4.08494 10.3585C4.81072 9.37248 5.86903 8.64784 7.12737 8.39071C9.87292 7.82949 12.5378 9.70463 13.0745 12.5755C13.6112 15.4464 11.8179 18.2329 9.07224 18.7941C6.32661 19.3553 3.66178 17.4801 3.12506 14.6091C3.1076 14.5159 3.09264 14.4227 3.08 14.3292L3.06753 14.2296C3.02455 13.8892 2.87549 12.7148 2.68552 11.3034C2.5496 10.2939 2.38374 8.8716 2.38374 8.8716C2.38374 8.8716 3.23621 9.56016 4.08494 10.3585ZM5.71731 12.7828C6.14463 12.7828 6.49155 13.1455 6.49155 13.5923C6.49155 14.0392 6.14463 14.4019 5.71731 14.4019C5.28999 14.4019 4.94307 14.0392 4.94307 13.5923C4.94307 13.1455 5.28999 12.7828 5.71731 12.7828ZM10.4822 12.7828C10.9095 12.7828 11.2565 13.1455 11.2565 13.5923C11.2565 14.0392 10.9095 14.4019 10.4822 14.4019C10.0549 14.4019 9.70798 14.0392 9.70798 13.5923C9.70798 13.1455 10.0549 12.7828 10.4822 12.7828ZM8.08168 12.7828C8.509 12.7828 8.85592 13.1455 8.85592 13.5923C8.85592 14.0392 8.509 14.4019 8.08168 14.4019C7.65436 14.4019 7.30744 14.0392 7.30744 13.5923C7.30744 13.1455 7.65436 12.7828 8.08168 12.7828Z" fill="white"/>
</svg>
