<svg width="24" height="24" viewBox="0 0 24 24" fill="none" xmlns="http://www.w3.org/2000/svg">
<path d="M16.6036 11.048C17.2126 10.0101 17.4757 8.80531 17.3546 7.608C17.1756 5.824 16.1796 4.247 14.5516 3.168L13.4466 4.834C14.5656 5.576 15.2466 6.633 15.3646 7.808C15.419 8.3541 15.351 8.90546 15.1656 9.42198C14.9801 9.9385 14.6819 10.4072 14.2926 10.794L13.1006 11.986L14.7186 12.461C18.9506 13.701 18.9996 17.957 18.9996 18H20.9996C20.9996 16.211 20.0436 12.715 16.6036 11.048Z" fill="#0A2033" fill-opacity="0.5"/>
<path d="M9.5 12C11.706 12 13.5 10.206 13.5 8C13.5 5.794 11.706 4 9.5 4C7.294 4 5.5 5.794 5.5 8C5.5 10.206 7.294 12 9.5 12ZM9.5 6C10.603 6 11.5 6.897 11.5 8C11.5 9.103 10.603 10 9.5 10C8.397 10 7.5 9.103 7.5 8C7.5 6.897 8.397 6 9.5 6ZM11 13H8C4.691 13 2 15.691 2 19V20H4V19C4 16.794 5.794 15 8 15H11C13.206 15 15 16.794 15 19V20H17V19C17 15.691 14.309 13 11 13Z" fill="#0A2033" fill-opacity="0.5"/>
</svg>
